<?xml version="1.0" ?><!DOCTYPE svg  PUBLIC '-//W3C//DTD SVG 1.1//EN'  'http://www.w3.org/Graphics/SVG/1.1/DTD/svg11.dtd'><svg enable-background="new 0 0 141.73 141.73" height="141.73px" id="Warstwa_1" version="1.1" viewBox="0 0 141.73 141.73" width="141.73px" xml:space="preserve" xmlns="http://www.w3.org/2000/svg" xmlns:xlink="http://www.w3.org/1999/xlink"><g><path d="M70.867,27.323c-23.997,0-43.52,19.523-43.52,43.521s19.523,43.52,43.52,43.52   c23.997,0,43.519-19.522,43.519-43.52S94.863,27.323,70.867,27.323z M70.867,112.363c-22.894,0-41.52-18.626-41.52-41.52   c0-22.895,18.626-41.521,41.52-41.521c22.893,0,41.519,18.626,41.519,41.521C112.386,93.737,93.76,112.363,70.867,112.363z" fill="#575756"/><path d="M71.574,53.128c-0.092-0.092-0.203-0.166-0.326-0.216c-0.244-0.101-0.52-0.101-0.764,0   c-0.123,0.051-0.233,0.124-0.326,0.216L55.986,67.301c-0.391,0.391-0.391,1.023,0,1.414s1.023,0.391,1.414,0l12.466-12.466v31.603   c0,0.553,0.448,1,1,1s1-0.447,1-1V56.249l12.466,12.466c0.195,0.195,0.451,0.293,0.707,0.293s0.512-0.098,0.707-0.293   c0.391-0.391,0.391-1.023,0-1.414L71.574,53.128z" fill="#575756"/></g></svg>