<?xml version="1.0" ?><!DOCTYPE svg  PUBLIC '-//W3C//DTD SVG 1.1//EN'  'http://www.w3.org/Graphics/SVG/1.1/DTD/svg11.dtd'><svg height="512px" id="Слой_1" style="enable-background:new 0 0 512 512;" version="1.1" viewBox="0 0 512 512" width="512px" xml:space="preserve" xmlns="http://www.w3.org/2000/svg" xmlns:xlink="http://www.w3.org/1999/xlink"><g id="youtube_1_"><g><path d="M456,6H56C28.383,6,6,28.383,6,56v400c0,27.617,22.383,50,50,50h400c27.618,0,50-22.383,50-50V56    C506,28.383,483.618,6,456,6z M114.868,465.492H86.215V315.98H45.942v-29.492h109.58v29.492h-40.654V465.492z M214.672,466.215    l-1.611-13.672h-0.537c-5.098,7.773-18.408,15.82-32.09,15.82c-23.867,0-33.516-17.969-33.516-52.031v-79.98h28.692v76.503    c0,18.77,6.074,31.641,17.871,31.641c8.857,0,10.556-7.5,11.894-12.871c1.075-2.949,1.612-6.973,1.612-11.27v-84.003h28.701    v91.796c0,14.2,0.527,27.09,1.074,38.067H214.672z M305.981,468.363c-12.334,0-16.778-6.172-22.949-18.222h-0.801l-1.611,18.203    h-25.772c0.527-9.649,1.074-26.797,1.074-37.52V276.508h29.785v73.32h0.547c6.426-10.996,12.481-16.348,24.551-16.348    c23.066,0,36.475,26.27,36.475,64.883C347.28,444.769,328.51,468.363,305.981,468.363z M446.567,405.707h-61.153    c0.274,29.238,13.692,40.137,28.965,40.137c9.658,0,17.705-2.149,23.34-4.571l4.287,20.391c-8.31,3.75-20.918,6.172-32.715,6.172    c-33.798,0-51.767-24.414-51.767-64.902c0-43.184,11.113-69.454,39.004-69.454c27.363,0,50.84,24.942,50.84,59.805    C447.368,400.785,447.104,402.23,446.567,405.707z M486,256H26V76c0-27.617,22.383-50,50-50h360c27.618,0,50,22.383,50,50V256z     M299.008,357.602c-7.246,0-10.615,8.593-12.226,17.167c-0.528,2.422-1.075,5.899-1.075,8.321v36.738    c0,3.223,0.547,6.172,1.075,8.32c3.759,13.672,7.666,16.621,12.5,16.621c13.945,0,19.306-18.242,19.306-44.511    C318.588,376.117,312.953,357.602,299.008,357.602z M403.93,354.926c-12.344,0-17.969,17.968-18.516,33.261h35.411    C421.088,367.269,414.116,354.926,403.93,354.926z M177.758,46.41l-12.607,43.184c-4.014,13.398-7.774,27.09-10.733,40.488h-0.527    c-3.223-13.672-7.246-27.617-11.27-39.688L128.676,46.41H98.373l39.698,108.359v72.403h28.691v-73.477L207.524,46.41H177.758z     M247.973,94.418c-24.414,0-47.744,20.371-47.744,67.851c0,43.985,19.043,67.051,46.67,67.051h0.263    c19.581,0,46.934-15.019,46.934-67.851C294.096,118.285,275.317,94.418,247.973,94.418z M247.973,207.328H247.7    c-15.02,0-18.77-23.613-18.77-45.605c0-19.024,2.949-45.313,18.496-45.313c14.756,0,17.969,26.289,17.969,45.313    C265.395,181.586,262.182,207.328,247.973,207.328z M391.616,96.566h-28.702v84.746c0,4.297-0.527,8.301-1.601,11.25    c-1.348,5.372-5.899,12.891-14.746,12.891c-11.797,0-15.02-12.891-15.02-31.66V96.566h-28.701v80.723    c0,34.063,9.658,52.031,33.525,52.031c13.672,0,24.141-8.047,29.239-15.82h0.527l1.611,13.672h24.942    c-0.537-10.996-1.074-23.867-1.074-38.086V96.566z" style="fill:#3B3A39;"/></g></g></svg>