<?xml version="1.0" ?><!DOCTYPE svg  PUBLIC '-//W3C//DTD SVG 1.1//EN'  'http://www.w3.org/Graphics/SVG/1.1/DTD/svg11.dtd'><svg height="128px" id="Layer_1" style="enable-background:new 0 0 127.999 128;" version="1.1" viewBox="0 0 127.999 128" width="127.999px" xml:space="preserve" xmlns="http://www.w3.org/2000/svg" xmlns:xlink="http://www.w3.org/1999/xlink"><style type="text/css">
<![CDATA[
	.st0{fill:#231F20;}
]]>
</style><g><path class="st0" d="M63.999,7.989c-30.884,0-56.01,25.126-56.01,56.01c0,30.885,25.126,56.012,56.01,56.012   c30.885,0,56.011-25.127,56.011-56.012C120.01,33.115,94.884,7.989,63.999,7.989z M79.125,88.987c0,0.387-0.224,0.739-0.573,0.904   c-2.386,1.126-4.591,1.931-6.556,2.392c-1.968,0.458-4.115,0.69-6.384,0.69c-2.601,0-4.939-0.336-6.952-0.999   c-2.039-0.673-3.811-1.646-5.265-2.895c-1.478-1.273-2.521-2.662-3.104-4.128c-0.576-1.444-0.856-3.439-0.856-6.098V60.638h-5.057   c-0.553,0-1-0.447-1-1v-7.755c0-0.434,0.279-0.818,0.692-0.951c2.016-0.651,3.761-1.598,5.187-2.812   c1.431-1.216,2.592-2.694,3.451-4.395c0.874-1.719,1.485-3.957,1.819-6.655c0.062-0.501,0.487-0.877,0.992-0.877h7.794   c0.553,0,1,0.447,1,1v12.844h11.994c0.553,0,1,0.448,1,1v8.601c0,0.553-0.447,1-1,1H64.314v13.05c0,3.796,0.237,5.23,0.438,5.767   c0.258,0.684,0.732,1.223,1.45,1.646c1.073,0.644,2.265,0.955,3.649,0.955c2.555,0,5.153-0.855,7.725-2.544   c0.308-0.202,0.702-0.218,1.023-0.044c0.324,0.175,0.525,0.513,0.525,0.88V88.987z"/></g></svg>